<?xml version="1.0" encoding="UTF-8" standalone="no"?>
<!-- Created with Inkscape (http://www.inkscape.org/) -->

<svg
   width="11in"
   height="8.5in"
   viewBox="0 0 279.4 215.9"
   version="1.1"
   id="svg10887"
   inkscape:version="1.1.2 (b8e25be833, 2022-02-05)"
   sodipodi:docname="Picade Mini 8in Screen Matte Template (Letter).svg"
   xmlns:inkscape="http://www.inkscape.org/namespaces/inkscape"
   xmlns:sodipodi="http://sodipodi.sourceforge.net/DTD/sodipodi-0.dtd"
   xmlns="http://www.w3.org/2000/svg"
   xmlns:svg="http://www.w3.org/2000/svg"
   xmlns:rdf="http://www.w3.org/1999/02/22-rdf-syntax-ns#"
   xmlns:cc="http://creativecommons.org/ns#"
   xmlns:dc="http://purl.org/dc/elements/1.1/">
  <title
     id="title11960">Picade Mini 8in Screen Matte Template (Letter)</title>
  <sodipodi:namedview
     id="namedview10889"
     pagecolor="#ffffff"
     bordercolor="#666666"
     borderopacity="1.0"
     inkscape:pageshadow="2"
     inkscape:pageopacity="0.0"
     inkscape:pagecheckerboard="0"
     inkscape:document-units="mm"
     showgrid="false"
     units="in"
     inkscape:zoom="1.7"
     inkscape:cx="682.94118"
     inkscape:cy="531.76471"
     inkscape:window-width="3840"
     inkscape:window-height="2066"
     inkscape:window-x="-11"
     inkscape:window-y="-11"
     inkscape:window-maximized="1"
     inkscape:current-layer="layer1" />
  <defs
     id="defs10884" />
  <g
     inkscape:label="Layer 1"
     inkscape:groupmode="layer"
     id="layer1">
    <g
       id="g13869"
       transform="translate(-127.99608,-104.18358)">
      <path
         d="M 384.19599,309.63359 H 151.19616 V 114.63356 h 232.99983 z"
         style="fill:none;stroke:#000000;stroke-width:0.0998361;stroke-linecap:round;stroke-linejoin:round;stroke-miterlimit:10;stroke-dasharray:none;stroke-opacity:1"
         id="path11986" />
      <path
         d="m 160.64767,295.85007 c 1.06786,0 1.93358,0.86572 1.93358,1.93358 0,1.06785 -0.86572,1.93357 -1.93358,1.93357 -1.06786,0 -1.93357,-0.86572 -1.93357,-1.93357 0,-1.06786 0.86571,-1.93358 1.93357,-1.93358 z"
         style="fill:none;stroke:#000000;stroke-width:0.0998361;stroke-linecap:round;stroke-linejoin:round;stroke-miterlimit:10;stroke-dasharray:none;stroke-opacity:1"
         id="path11998" />
      <path
         d="m 160.64767,143.85026 c 1.06786,0 1.93358,0.86572 1.93358,1.93358 0,1.06786 -0.86572,1.93357 -1.93358,1.93357 -1.06786,0 -1.93357,-0.86571 -1.93357,-1.93357 0,-1.06786 0.86571,-1.93358 1.93357,-1.93358 z"
         style="fill:none;stroke:#000000;stroke-width:0.0998361;stroke-linecap:round;stroke-linejoin:round;stroke-miterlimit:10;stroke-dasharray:none;stroke-opacity:1"
         id="path12002" />
      <path
         d="m 374.74335,295.85007 c 1.06786,0 1.93357,0.86572 1.93357,1.93358 0,1.06785 -0.86571,1.93357 -1.93357,1.93357 -1.06786,0 -1.93358,-0.86572 -1.93358,-1.93357 0,-1.06786 0.86572,-1.93358 1.93358,-1.93358 z"
         style="fill:none;stroke:#000000;stroke-width:0.0998361;stroke-linecap:round;stroke-linejoin:round;stroke-miterlimit:10;stroke-dasharray:none;stroke-opacity:1"
         id="path12006" />
      <path
         d="m 374.74335,143.85026 c 1.06786,0 1.93357,0.86572 1.93357,1.93358 0,1.06786 -0.86571,1.93357 -1.93357,1.93357 -1.06786,0 -1.93358,-0.86571 -1.93358,-1.93357 0,-1.06786 0.86572,-1.93358 1.93358,-1.93358 z"
         style="fill:none;stroke:#000000;stroke-width:0.0998361;stroke-linecap:round;stroke-linejoin:round;stroke-miterlimit:10;stroke-dasharray:none;stroke-opacity:1"
         id="path12010" />
      <path
         d="M 186.96641,160.3712 H 348.68785 V 283.59295 H 186.96641 Z"
         style="fill:none;stroke:#000000;stroke-width:0.0998361;stroke-linecap:round;stroke-linejoin:round;stroke-miterlimit:10;stroke-dasharray:none;stroke-opacity:1"
         id="path12012" />
    </g>
  </g>
  <metadata
     id="metadata11958">
    <rdf:RDF>
      <cc:Work
         rdf:about="">
        <dc:title>Picade Mini 8in Screen Matte Template (Letter)</dc:title>
      </cc:Work>
    </rdf:RDF>
  </metadata>
</svg>
