<?xml version="1.0" encoding="UTF-8" standalone="no"?>
<!-- Created with Inkscape (http://www.inkscape.org/) -->

<svg
   width="297mm"
   height="210mm"
   viewBox="0 0 297 210"
   version="1.1"
   id="svg2208"
   inkscape:version="1.1.2 (b8e25be833, 2022-02-05)"
   sodipodi:docname="Picade Mini Control Template.svg"
   xmlns:inkscape="http://www.inkscape.org/namespaces/inkscape"
   xmlns:sodipodi="http://sodipodi.sourceforge.net/DTD/sodipodi-0.dtd"
   xmlns="http://www.w3.org/2000/svg"
   xmlns:svg="http://www.w3.org/2000/svg"
   xmlns:rdf="http://www.w3.org/1999/02/22-rdf-syntax-ns#"
   xmlns:cc="http://creativecommons.org/ns#"
   xmlns:dc="http://purl.org/dc/elements/1.1/">
  <title
     id="title2402">Picade Mini Control Template (A4)</title>
  <sodipodi:namedview
     id="namedview2210"
     pagecolor="#ffffff"
     bordercolor="#666666"
     borderopacity="1.0"
     inkscape:pageshadow="2"
     inkscape:pageopacity="0.0"
     inkscape:pagecheckerboard="0"
     inkscape:document-units="mm"
     showgrid="false"
     units="mm"
     inkscape:zoom="0.77771465"
     inkscape:cx="397.31796"
     inkscape:cy="354.88595"
     inkscape:window-width="3840"
     inkscape:window-height="2066"
     inkscape:window-x="-11"
     inkscape:window-y="-11"
     inkscape:window-maximized="1"
     inkscape:current-layer="layer1" />
  <defs
     id="defs2205" />
  <g
     inkscape:label="Layer 1"
     inkscape:groupmode="layer"
     id="layer1">
    <g
       id="g2398"
       transform="rotate(90,23.564372,3.8222264)">
      <g
         id="g910"
         transform="matrix(0.35277777,0,0,-0.35277777,120.94008,18.667734)">
        <path
           d="M 4.5000077,0 191.28701,25.303 c 12.361,1.674 22.473,13.248 22.473,25.72 v 690.416 c 0,12.473 -10.108,24.074 -22.463,25.781 L 8.6040077,792.46 -169.75199,767.285 c -12.35,-1.743 -22.453,-13.373 -22.453,-25.846 V 51.023 c 0,-12.472 10.101,-24.132 22.445,-25.91 z"
           style="fill:none;stroke:#000000;stroke-width:0.283;stroke-linecap:butt;stroke-linejoin:miter;stroke-miterlimit:10;stroke-dasharray:none;stroke-opacity:1"
           id="path912" />
      </g>
      <g
         id="g914"
         transform="matrix(0.35277777,0,0,-0.35277777,119.51835,-154.86168)">
        <path
           d="M 0,0 C 0,23.403 18.975,42.377 42.379,42.377 65.785,42.377 84.756,23.403 84.756,0 84.756,-23.407 65.785,-42.379 42.379,-42.379 18.975,-42.379 0,-23.407 0,0 Z"
           style="fill:none;stroke:#000000;stroke-width:0.283;stroke-linecap:butt;stroke-linejoin:miter;stroke-miterlimit:10;stroke-dasharray:none;stroke-opacity:1"
           id="path916" />
      </g>
      <g
         id="g918"
         transform="matrix(0.35277777,0,0,-0.35277777,112.57303,-194.2515)">
        <path
           d="M 0,0 C 0,23.405 18.975,42.379 42.379,42.379 65.783,42.379 84.756,23.405 84.756,0 84.756,-23.403 65.783,-42.377 42.379,-42.377 18.975,-42.377 0,-23.403 0,0 Z"
           style="fill:none;stroke:#000000;stroke-width:0.283;stroke-linecap:butt;stroke-linejoin:miter;stroke-miterlimit:10;stroke-dasharray:none;stroke-opacity:1"
           id="path920" />
      </g>
      <g
         id="g922"
         transform="matrix(0.35277777,0,0,-0.35277777,84.087606,-168.34784)">
        <path
           d="m 0,0 c 0,23.406 18.973,42.38 42.381,42.38 23.4,0 42.375,-18.974 42.375,-42.38 0,-23.404 -18.975,-42.38 -42.375,-42.38 C 18.973,-42.38 0,-23.404 0,0 Z"
           style="fill:none;stroke:#000000;stroke-width:0.283;stroke-linecap:butt;stroke-linejoin:miter;stroke-miterlimit:10;stroke-dasharray:none;stroke-opacity:1"
           id="path924" />
      </g>
      <g
         id="g926"
         transform="matrix(0.35277777,0,0,-0.35277777,77.142293,-207.73837)">
        <path
           d="M 0,0 C 0,23.406 18.973,42.38 42.377,42.38 65.785,42.38 84.756,23.406 84.756,0 84.756,-23.406 65.785,-42.38 42.377,-42.38 18.973,-42.38 0,-23.406 0,0 Z"
           style="fill:none;stroke:#000000;stroke-width:0.283;stroke-linecap:butt;stroke-linejoin:miter;stroke-miterlimit:10;stroke-dasharray:none;stroke-opacity:1"
           id="path928" />
      </g>
      <g
         id="g930"
         transform="matrix(0.35277777,0,0,-0.35277777,126.51813,-115.36087)">
        <path
           d="M 0,0 C 0,23.403 18.973,42.377 42.379,42.377 65.783,42.377 84.756,23.403 84.756,0 84.756,-23.407 65.783,-42.379 42.379,-42.379 18.973,-42.379 0,-23.407 0,0 Z"
           style="fill:none;stroke:#000000;stroke-width:0.283;stroke-linecap:butt;stroke-linejoin:miter;stroke-miterlimit:10;stroke-dasharray:none;stroke-opacity:1"
           id="path932" />
      </g>
      <g
         id="g934"
         transform="matrix(0.35277777,0,0,-0.35277777,91.086717,-128.84707)">
        <path
           d="M 0,0 C 0,23.406 18.975,42.38 42.381,42.38 65.783,42.38 84.756,23.406 84.756,0 84.756,-23.404 65.783,-42.38 42.381,-42.38 18.975,-42.38 0,-23.404 0,0 Z"
           style="fill:none;stroke:#000000;stroke-width:0.283;stroke-linecap:butt;stroke-linejoin:miter;stroke-miterlimit:10;stroke-dasharray:none;stroke-opacity:1"
           id="path936" />
      </g>
      <g
         id="g938"
         transform="matrix(0.35277777,0,0,-0.35277777,132.27398,-57.519212)">
        <path
           d="m 0,0 c 0,21.916 -17.768,39.684 -39.685,39.684 -21.919,0 -39.684,-17.768 -39.684,-39.684 0,-21.918 17.765,-39.685 39.684,-39.685 C -17.768,-39.685 0,-21.918 0,0 Z"
           style="fill:none;stroke:#000000;stroke-width:0.283;stroke-linecap:butt;stroke-linejoin:miter;stroke-miterlimit:10;stroke-dasharray:none;stroke-opacity:1"
           id="path940" />
      </g>
      <g
         id="g942"
         transform="matrix(0.35277777,0,0,-0.35277777,160.77768,-65.484193)">
        <path
           d="M 0,0 C 3.131,-0.001 5.67,2.535 5.67,5.666 5.672,8.799 3.135,11.338 0.005,11.338 -3.125,11.339 -5.668,8.803 -5.668,5.67 -5.669,2.539 -3.129,0 0,0 Z"
           style="fill:none;stroke:#000000;stroke-width:0.283;stroke-linecap:butt;stroke-linejoin:miter;stroke-miterlimit:5.434;stroke-dasharray:none;stroke-opacity:1"
           id="path944" />
      </g>
      <g
         id="g946"
         transform="matrix(0.35277777,0,0,-0.35277777,67.248782,-16.630011)">
        <path
           d="m 0,0 c 3.131,0.003 5.669,-2.535 5.67,-5.668 0.004,-3.131 -2.535,-5.669 -5.665,-5.67 -3.131,-0.001 -5.672,2.535 -5.673,5.666 C -5.669,-2.541 -3.131,-0.001 0,0 Z"
           style="fill:none;stroke:#000000;stroke-width:0.283;stroke-linecap:butt;stroke-linejoin:miter;stroke-miterlimit:5.434;stroke-dasharray:none;stroke-opacity:1"
           id="path948" />
      </g>
      <g
         id="g950"
         transform="matrix(0.35277777,0,0,-0.35277777,67.248782,-225.59693)">
        <path
           d="M 0,0 C 3.131,-0.003 5.669,2.535 5.67,5.668 5.674,8.799 3.135,11.337 0.005,11.338 -3.126,11.339 -5.667,8.803 -5.668,5.672 -5.669,2.541 -3.131,0.001 0,0 Z"
           style="fill:none;stroke:#000000;stroke-width:0.283;stroke-linecap:butt;stroke-linejoin:miter;stroke-miterlimit:5.434;stroke-dasharray:none;stroke-opacity:1"
           id="path952" />
      </g>
      <g
         id="g954"
         transform="matrix(0.35277777,0,0,-0.35277777,75.771293,-45.536303)">
        <path
           d="M 0,0 C 3.131,-0.001 5.669,2.535 5.67,5.666 5.672,8.799 3.136,11.338 0.005,11.338 -3.124,11.339 -5.665,8.803 -5.666,5.67 -5.667,2.539 -3.129,0 0,0 Z"
           style="fill:none;stroke:#000000;stroke-width:0.283;stroke-linecap:butt;stroke-linejoin:miter;stroke-miterlimit:5.434;stroke-dasharray:none;stroke-opacity:1"
           id="path956" />
      </g>
    </g>
  </g>
  <metadata
     id="metadata2400">
    <rdf:RDF>
      <cc:Work
         rdf:about="">
        <dc:title>Picade Mini Control Template (A4)</dc:title>
      </cc:Work>
    </rdf:RDF>
  </metadata>
</svg>
